<svg xmlns="http://www.w3.org/2000/svg" viewBox="0 0 512 512" role="img" aria-labelledby="title desc">
  <title id="title">Corius Diagnostico Cardiovascular</title>
  <desc id="desc">Logo Corius</desc>
  <rect width="512" height="512" fill="#efefef"/>
  <path d="M118 190c0-44 35-79 79-79 24 0 44 9 59 25 15-16 35-25 59-25 44 0 79 35 79 79 0 79-80 113-138 168-58-55-138-89-138-168z" fill="#66aabd"/>
  <path d="M256 136c15-16 35-25 59-25 44 0 79 35 79 79 0 79-80 113-138 168z" fill="#235b80"/>
  <path d="M140 208l56 36" stroke="#f0f3f5" stroke-width="26" stroke-linecap="round"/>
  <path d="M214 258l56-36" stroke="#f0f3f5" stroke-width="26" stroke-linecap="round"/>
  <path d="M288 208l56 36" stroke="#f0f3f5" stroke-width="26" stroke-linecap="round"/>
  <text x="256" y="430" text-anchor="middle" font-family="Arial, Helvetica, sans-serif" font-size="102" font-weight="700" letter-spacing="6" fill="#235b80">CORIUS</text>
  <text x="256" y="474" text-anchor="middle" font-family="Arial, Helvetica, sans-serif" font-size="28" font-weight="600" letter-spacing="2" fill="#235b80">DIAGNOSTICO CARDIOVASCULAR</text>
</svg>
